<?xml version="1.0" standalone="no"?>
<!DOCTYPE svg PUBLIC "-//W3C//DTD SVG 20010904//EN"
 "http://www.w3.org/TR/2001/REC-SVG-20010904/DTD/svg10.dtd">
<svg version="1.0" xmlns="http://www.w3.org/2000/svg"
 width="411.000000pt" height="411.000000pt" viewBox="0 0 411.000000 411.000000"
 preserveAspectRatio="xMidYMid meet">
<metadata>
Created by potrace 1.11, written by Peter Selinger 2001-2013
</metadata>
<g transform="translate(0.000000,411.000000) scale(0.100000,-0.100000)"
fill="#000000" stroke="none">
<path d="M1115 3893 c-35 -7 -98 -57 -130 -102 l-30 -43 -5 -327 -5 -327 -331
0 c-297 0 -337 -2 -380 -19 -104 -39 -168 -101 -211 -204 l-23 -56 3 -1175 2
-1175 22 -47 c26 -55 84 -122 134 -154 91 -57 -14 -54 1914 -52 2031 3 1821
-8 1932 103 52 53 64 72 82 131 21 69 21 74 19 1234 l-3 1165 -24 45 c-36 68
-70 108 -118 141 -86 59 -97 61 -463 63 l-335 1 -2 301 c-1 189 -6 317 -13
343 -6 25 -28 61 -51 86 -73 79 -16 75 -1048 74 -504 -1 -925 -4 -936 -6z
m1580 -452 c10 -1 15 -340 5 -342 -3 -1 -295 -3 -650 -3 l-645 -2 0 173 c0
165 0 172 20 175 15 2 1227 1 1270 -1z m-1284 -1543 c0 -348 2 -644 5 -658 30
-173 123 -247 298 -238 134 7 206 59 243 175 13 41 15 145 17 698 l1 650 223
3 222 2 0 -647 c-1 -681 -3 -715 -47 -832 -67 -176 -207 -301 -408 -362 -22
-7 -51 -14 -65 -15 -14 -2 -52 -7 -85 -12 -147 -20 -345 3 -467 54 -216 91
-341 252 -376 484 -6 42 -9 1316 -3 1328 0 1 100 2 221 2 l220 0 1 -632z
m1761 615 c2 -10 3 -425 3 -923 l-1 -905 -222 -3 -222 -2 0 925 0 925 219 0
c200 0 219 -1 223 -17z"/>
</g>
</svg>
