<svg width="502" height="86" fill="none" xmlns="http://www.w3.org/2000/svg"><path d="M153.46 27.5v-9.41c-.993-.413-2.107-.707-3.34-.88-1.173-.233-2.61-.35-4.31-.35-2.407 0-4.783.44-7.13 1.32-2.287.88-4.34 2.317-6.16 4.31-1.76 1.993-3.197 4.603-4.31 7.83-1.06 3.227-1.59 7.187-1.59 11.88 0 4.227.47 7.923 1.41 11.09 1 3.167 2.35 5.807 4.05 7.92 1.76 2.113 3.843 3.697 6.25 4.75 2.46 1.053 5.187 1.58 8.18 1.58 1.527 0 2.937-.117 4.23-.35a21.2 21.2 0 003.69-1.14v-8.8h6.51v11.88l.09.17c-1.76 1.353-3.99 2.5-6.69 3.44-2.693.88-5.977 1.32-9.85 1.32-3.7 0-7.133-.617-10.3-1.85-3.107-1.293-5.803-3.23-8.09-5.81-2.293-2.58-4.083-5.867-5.37-9.86-1.233-4.047-1.85-8.827-1.85-14.34 0-5.747.703-10.617 2.11-14.61 1.407-4.047 3.313-7.33 5.72-9.85 2.407-2.587 5.193-4.467 8.36-5.64 3.227-1.173 6.66-1.76 10.3-1.76 1.993 0 3.723.09 5.19.27 1.467.113 2.757.317 3.87.61 1.113.24 2.083.563 2.91.97.88.413 1.73.883 2.55 1.41h.09v13.9h-6.52zm-2.32 0v-9.41c-.993-.413-2.107-.707-3.34-.88-1.173-.233-2.61-.35-4.31-.35-2.407 0-4.783.44-7.13 1.32-2.287.88-4.34 2.317-6.16 4.31-1.76 1.993-3.197 4.603-4.31 7.83-1.06 3.227-1.59 7.187-1.59 11.88 0 4.227.47 7.923 1.41 11.09 1 3.167 2.35 5.807 4.05 7.92 1.76 2.113 3.843 3.697 6.25 4.75 2.46 1.053 5.187 1.58 8.18 1.58 1.527 0 2.937-.117 4.23-.35a21.2 21.2 0 003.69-1.14v-8.8h6.51v11.88l.09.17c-1.76 1.353-3.99 2.5-6.69 3.44-2.693.88-5.977 1.32-9.85 1.32-3.7 0-7.133-.617-10.3-1.85-3.107-1.293-5.803-3.23-8.09-5.81-2.293-2.58-4.083-5.867-5.37-9.86-1.233-4.047-1.85-8.827-1.85-14.34 0-5.747.703-10.617 2.11-14.61 1.407-4.047 3.313-7.33 5.72-9.85 2.407-2.587 5.193-4.467 8.36-5.64 3.227-1.173 6.66-1.76 10.3-1.76 1.993 0 3.723.09 5.19.27 1.467.113 2.757.317 3.87.61 1.113.24 2.083.563 2.91.97.88.413 1.73.883 2.55 1.41h.09v13.9h-6.52zM173.35 51c0-7.1 1.85-12.703 5.55-16.81 3.693-4.167 8.973-6.25 15.84-6.25 3.693 0 6.86.617 9.5 1.85 2.7 1.173 4.93 2.787 6.69 4.84 1.76 2.053 3.05 4.49 3.87 7.31.88 2.813 1.32 5.833 1.32 9.06 0 3.52-.47 6.717-1.41 9.59-.94 2.82-2.317 5.227-4.13 7.22-1.82 1.993-4.08 3.547-6.78 4.66-2.64 1.06-5.66 1.59-9.06 1.59-3.64 0-6.81-.587-9.51-1.76-2.7-1.233-4.93-2.877-6.69-4.93-1.76-2.053-3.08-4.49-3.96-7.31-.82-2.813-1.23-5.833-1.23-9.06zm7.31 0c0 2.053.233 4.107.7 6.16.527 2.053 1.347 3.9 2.46 5.54a12.695 12.695 0 004.32 3.96c1.813 1 4.013 1.5 6.6 1.5 4.693 0 8.213-1.437 10.56-4.31 2.4-2.933 3.6-7.217 3.6-12.85 0-2.113-.263-4.167-.79-6.16-.467-2.053-1.287-3.9-2.46-5.54-1.113-1.647-2.58-2.967-4.4-3.96-1.76-1-3.93-1.5-6.51-1.5-4.693 0-8.213 1.437-10.56 4.31-2.347 2.873-3.52 7.157-3.52 12.85zm-9.63 0c0-7.1 1.85-12.703 5.55-16.81 3.693-4.167 8.973-6.25 15.84-6.25 3.693 0 6.86.617 9.5 1.85 2.7 1.173 4.93 2.787 6.69 4.84 1.76 2.053 3.05 4.49 3.87 7.31.88 2.813 1.32 5.833 1.32 9.06 0 3.52-.47 6.717-1.41 9.59-.94 2.82-2.317 5.227-4.13 7.22-1.82 1.993-4.08 3.547-6.78 4.66-2.64 1.06-5.66 1.59-9.06 1.59-3.64 0-6.81-.587-9.51-1.76-2.7-1.233-4.93-2.877-6.69-4.93-1.76-2.053-3.08-4.49-3.96-7.31-.82-2.813-1.23-5.833-1.23-9.06zm7.31 0c0 2.053.233 4.107.7 6.16.527 2.053 1.347 3.9 2.46 5.54a12.695 12.695 0 004.32 3.96c1.813 1 4.013 1.5 6.6 1.5 4.693 0 8.213-1.437 10.56-4.31 2.4-2.933 3.6-7.217 3.6-12.85 0-2.113-.263-4.167-.79-6.16-.467-2.053-1.287-3.9-2.46-5.54-1.113-1.647-2.58-2.967-4.4-3.96-1.76-1-3.93-1.5-6.51-1.5-4.693 0-8.213 1.437-10.56 4.31-2.347 2.873-3.52 7.157-3.52 12.85zm53.36 22V44.4c0-.527-.03-1.2-.09-2.02 0-.88-.03-1.76-.09-2.64a42.89 42.89 0 00-.26-2.73c-.06-.88-.15-1.643-.27-2.29h-5.89V29h11.79l.79 7.13h.44c.587-1 1.35-1.97 2.29-2.91a17.288 17.288 0 013.43-2.64 16.981 16.981 0 014.31-1.93c1.587-.473 3.26-.71 5.02-.71 2.7 0 5.077.293 7.13.88 2.107.587 3.837 1.643 5.19 3.17 1.407 1.467 2.463 3.49 3.17 6.07.7 2.527 1.05 5.753 1.05 9.68V73h-6.86V49.06c0-4.867-.793-8.533-2.38-11-1.58-2.46-4.453-3.69-8.62-3.69-1.527 0-3.023.323-4.49.97a14.726 14.726 0 00-3.87 2.37 16.33 16.33 0 00-3.08 3.52 14.128 14.128 0 00-1.94 4.14V73h-6.77zm-2.32 0V44.4c0-.527-.03-1.2-.09-2.02 0-.88-.03-1.76-.09-2.64a42.89 42.89 0 00-.26-2.73c-.06-.88-.15-1.643-.27-2.29h-5.89V29h11.79l.79 7.13h.44c.587-1 1.35-1.97 2.29-2.91a17.288 17.288 0 013.43-2.64 16.981 16.981 0 014.31-1.93c1.587-.473 3.26-.71 5.02-.71 2.7 0 5.077.293 7.13.88 2.107.587 3.837 1.643 5.19 3.17 1.407 1.467 2.463 3.49 3.17 6.07.7 2.527 1.05 5.753 1.05 9.68V73h-6.86V49.06c0-4.867-.793-8.533-2.38-11-1.58-2.46-4.453-3.69-8.62-3.69-1.527 0-3.023.323-4.49.97a14.726 14.726 0 00-3.87 2.37 16.33 16.33 0 00-3.08 3.52 14.128 14.128 0 00-1.94 4.14V73h-6.77zm87.85-11.88c0-1.88-.733-3.317-2.2-4.31-1.467-1.06-3.283-1.883-5.45-2.47a89.297 89.297 0 00-7.13-1.76c-2.527-.527-4.873-1.23-7.04-2.11-2.173-.88-3.993-2.053-5.46-3.52-1.467-1.527-2.2-3.637-2.2-6.33 0-2.233.47-4.14 1.41-5.72 1-1.587 2.29-2.88 3.87-3.88 1.587-1.053 3.437-1.813 5.55-2.28 2.107-.533 4.307-.8 6.6-.8 4.107 0 7.627.53 10.56 1.59 2.987.993 5.36 2.05 7.12 3.17l-2.81 5.54a65.38 65.38 0 00-6.34-2.99c-2.227-1-5.043-1.5-8.45-1.5-1.287 0-2.577.147-3.87.44a12.83 12.83 0 00-3.43 1.15 7.06 7.06 0 00-2.46 2.11c-.587.82-.88 1.847-.88 3.08 0 1.527.733 2.7 2.2 3.52 1.467.82 3.283 1.523 5.45 2.11 2.173.527 4.52 1.053 7.04 1.58 2.58.473 4.957 1.18 7.13 2.12 2.173.933 3.993 2.193 5.46 3.78 1.467 1.587 2.2 3.727 2.2 6.42 0 4.053-1.613 7.4-4.84 10.04-3.173 2.64-7.957 3.96-14.35 3.96-1.933 0-3.84-.177-5.72-.53a35.115 35.115 0 01-5.28-1.41 35.605 35.605 0 01-4.49-1.94c-1.347-.76-2.46-1.52-3.34-2.28l3.52-5.72c.707.7 1.647 1.433 2.82 2.2 1.173.7 2.463 1.343 3.87 1.93a26.735 26.735 0 004.49 1.41c1.64.353 3.28.53 4.92.53 1.587 0 3.053-.117 4.4-.35 1.413-.293 2.647-.707 3.7-1.24 1.053-.587 1.873-1.32 2.46-2.2.647-.933.97-2.047.97-3.34zm-2.32 0c0-1.88-.733-3.317-2.2-4.31-1.467-1.06-3.283-1.883-5.45-2.47a89.297 89.297 0 00-7.13-1.76c-2.527-.527-4.873-1.23-7.04-2.11-2.173-.88-3.993-2.053-5.46-3.52-1.467-1.527-2.2-3.637-2.2-6.33 0-2.233.47-4.14 1.41-5.72 1-1.587 2.29-2.88 3.87-3.88 1.587-1.053 3.437-1.813 5.55-2.28 2.107-.533 4.307-.8 6.6-.8 4.107 0 7.627.53 10.56 1.59 2.987.993 5.36 2.05 7.12 3.17l-2.81 5.54a65.38 65.38 0 00-6.34-2.99c-2.227-1-5.043-1.5-8.45-1.5-1.287 0-2.577.147-3.87.44a12.83 12.83 0 00-3.43 1.15 7.06 7.06 0 00-2.46 2.11c-.587.82-.88 1.847-.88 3.08 0 1.527.733 2.7 2.2 3.52 1.467.82 3.283 1.523 5.45 2.11 2.173.527 4.52 1.053 7.04 1.58 2.58.473 4.957 1.18 7.13 2.12 2.173.933 3.993 2.193 5.46 3.78 1.467 1.587 2.2 3.727 2.2 6.42 0 4.053-1.613 7.4-4.84 10.04-3.173 2.64-7.957 3.96-14.35 3.96-1.933 0-3.84-.177-5.72-.53a35.115 35.115 0 01-5.28-1.41 35.605 35.605 0 01-4.49-1.94c-1.347-.76-2.46-1.52-3.34-2.28l3.52-5.72c.707.7 1.647 1.433 2.82 2.2 1.173.7 2.463 1.343 3.87 1.93a26.735 26.735 0 004.49 1.41c1.64.353 3.28.53 4.92.53 1.587 0 3.053-.117 4.4-.35 1.413-.293 2.647-.707 3.7-1.24 1.053-.587 1.873-1.32 2.46-2.2.647-.933.97-2.047.97-3.34zM338.88 51c0-7.1 1.847-12.703 5.54-16.81 3.7-4.167 8.98-6.25 15.84-6.25 3.7 0 6.87.617 9.51 1.85 2.7 1.173 4.93 2.787 6.69 4.84 1.76 2.053 3.05 4.49 3.87 7.31.88 2.813 1.32 5.833 1.32 9.06 0 3.52-.47 6.717-1.41 9.59-.94 2.82-2.32 5.227-4.14 7.22-1.813 1.993-4.07 3.547-6.77 4.66-2.64 1.06-5.663 1.59-9.07 1.59-3.633 0-6.8-.587-9.5-1.76-2.7-1.233-4.93-2.877-6.69-4.93-1.76-2.053-3.08-4.49-3.96-7.31-.82-2.813-1.23-5.833-1.23-9.06zm7.3 0c0 2.053.237 4.107.71 6.16.527 2.053 1.347 3.9 2.46 5.54a12.6 12.6 0 004.31 3.96c1.82 1 4.02 1.5 6.6 1.5 4.693 0 8.213-1.437 10.56-4.31 2.407-2.933 3.61-7.217 3.61-12.85 0-2.113-.263-4.167-.79-6.16-.467-2.053-1.287-3.9-2.46-5.54-1.12-1.647-2.587-2.967-4.4-3.96-1.76-1-3.933-1.5-6.52-1.5-4.693 0-8.213 1.437-10.56 4.31-2.347 2.873-3.52 7.157-3.52 12.85zm-9.62 0c0-7.1 1.847-12.703 5.54-16.81 3.7-4.167 8.98-6.25 15.84-6.25 3.7 0 6.87.617 9.51 1.85 2.7 1.173 4.93 2.787 6.69 4.84 1.76 2.053 3.05 4.49 3.87 7.31.88 2.813 1.32 5.833 1.32 9.06 0 3.52-.47 6.717-1.41 9.59-.94 2.82-2.32 5.227-4.14 7.22-1.813 1.993-4.07 3.547-6.77 4.66-2.64 1.06-5.663 1.59-9.07 1.59-3.633 0-6.8-.587-9.5-1.76-2.7-1.233-4.93-2.877-6.69-4.93-1.76-2.053-3.08-4.49-3.96-7.31-.82-2.813-1.23-5.833-1.23-9.06zm7.3 0c0 2.053.237 4.107.71 6.16.527 2.053 1.347 3.9 2.46 5.54a12.6 12.6 0 004.31 3.96c1.82 1 4.02 1.5 6.6 1.5 4.693 0 8.213-1.437 10.56-4.31 2.407-2.933 3.61-7.217 3.61-12.85 0-2.113-.263-4.167-.79-6.16-.467-2.053-1.287-3.9-2.46-5.54-1.12-1.647-2.587-2.967-4.4-3.96-1.76-1-3.933-1.5-6.52-1.5-4.693 0-8.213 1.437-10.56 4.31-2.347 2.873-3.52 7.157-3.52 12.85zm51.34-33.7v-5.9h14.61v46.82c0 3.573.587 6.093 1.76 7.56 1.233 1.467 3.023 2.2 5.37 2.2 1.64 0 3.31-.32 5.01-.96a16.383 16.383 0 004.67-2.73l3.16 4.66c-.933.82-1.96 1.553-3.08 2.2a25.825 25.825 0 01-3.43 1.67 25.638 25.638 0 01-3.52.97c-1.173.233-2.257.35-3.25.35-2.173 0-4.11-.263-5.81-.79-1.7-.587-3.137-1.497-4.31-2.73-1.12-1.227-1.973-2.84-2.56-4.84-.587-2.053-.88-4.573-.88-7.56V17.3h-7.74zm-2.32 0v-5.9h14.61v46.82c0 3.573.587 6.093 1.76 7.56 1.233 1.467 3.023 2.2 5.37 2.2 1.64 0 3.31-.32 5.01-.96a16.383 16.383 0 004.67-2.73l3.16 4.66c-.933.82-1.96 1.553-3.08 2.2a25.825 25.825 0 01-3.43 1.67 25.638 25.638 0 01-3.52.97c-1.173.233-2.257.35-3.25.35-2.173 0-4.11-.263-5.81-.79-1.7-.587-3.137-1.497-4.31-2.73-1.12-1.227-1.973-2.84-2.56-4.84-.587-2.053-.88-4.573-.88-7.56V17.3h-7.74zm95.16 45.14l2.73 5.02c-1.06.933-2.323 1.813-3.79 2.64a26.21 26.21 0 01-4.66 2.11c-1.7.587-3.49 1.057-5.37 1.41-1.82.293-3.667.44-5.54.44-3.52 0-6.63-.53-9.33-1.59-2.7-1.113-4.96-2.667-6.78-4.66-1.813-2.053-3.19-4.49-4.13-7.31-.94-2.813-1.41-5.98-1.41-9.5 0-3.693.5-6.98 1.5-9.86 1.053-2.873 2.547-5.277 4.48-7.21 1.94-1.94 4.287-3.407 7.04-4.4 2.76-1.06 5.84-1.59 9.24-1.59 2.467 0 4.903.323 7.31.97s4.517 1.88 6.33 3.7c1.88 1.76 3.32 4.223 4.32 7.39.993 3.107 1.343 7.153 1.05 12.14h-34.05c0 5.28 1.407 9.24 4.22 11.88 2.873 2.587 6.687 3.88 11.44 3.88 1.587 0 3.14-.177 4.66-.53a45.547 45.547 0 004.49-1.41c1.407-.527 2.64-1.113 3.7-1.76 1.113-.647 1.963-1.233 2.55-1.76zM472.2 33.75c-1.933 0-3.78.207-5.54.62-1.707.407-3.233 1.11-4.58 2.11-1.293.94-2.38 2.2-3.26 3.78-.82 1.527-1.347 3.433-1.58 5.72h27.37c-.293-3.867-1.557-6.857-3.79-8.97-2.167-2.173-5.04-3.26-8.62-3.26zm13.52 28.69l2.73 5.02c-1.06.933-2.323 1.813-3.79 2.64a26.21 26.21 0 01-4.66 2.11c-1.7.587-3.49 1.057-5.37 1.41-1.82.293-3.667.44-5.54.44-3.52 0-6.63-.53-9.33-1.59-2.7-1.113-4.96-2.667-6.78-4.66-1.813-2.053-3.19-4.49-4.13-7.31-.94-2.813-1.41-5.98-1.41-9.5 0-3.693.5-6.98 1.5-9.86 1.053-2.873 2.547-5.277 4.48-7.21 1.94-1.94 4.287-3.407 7.04-4.4 2.76-1.06 5.84-1.59 9.24-1.59 2.467 0 4.903.323 7.31.97s4.517 1.88 6.33 3.7c1.88 1.76 3.32 4.223 4.32 7.39.993 3.107 1.343 7.153 1.05 12.14h-34.05c0 5.28 1.407 9.24 4.22 11.88 2.873 2.587 6.687 3.88 11.44 3.88 1.587 0 3.14-.177 4.66-.53a45.547 45.547 0 004.49-1.41c1.407-.527 2.64-1.113 3.7-1.76 1.113-.647 1.963-1.233 2.55-1.76zm-15.84-28.69c-1.933 0-3.78.207-5.54.62-1.707.407-3.233 1.11-4.58 2.11-1.293.94-2.38 2.2-3.26 3.78-.82 1.527-1.347 3.433-1.58 5.72h27.37c-.293-3.867-1.557-6.857-3.79-8.97-2.167-2.173-5.04-3.26-8.62-3.26z" fill="#000"/><path d="M0 0h106v86H0V0z" fill="#F7DF1E"/><path d="M62.54 56.36c2.69 4.39 6.19 7.61 12.38 7.61 5.2 0 8.52-2.59 8.52-6.18 0-4.31-3.41-5.83-9.14-8.33l-3.13-1.35C62.11 44.25 56.1 39.42 56.1 29.2c0-9.41 7.17-16.57 18.37-16.57 7.98 0 13.72 2.78 17.85 10.05l-9.77 6.27c-2.15-3.86-4.47-5.38-8.08-5.38-3.67 0-6 2.33-6 5.38 0 3.76 2.33 5.29 7.71 7.62l3.14 1.34C89.98 42.49 96 47.15 96 57.62c0 11.3-8.87 17.49-20.79 17.49-11.66 0-19.18-5.55-22.87-12.83l10.2-5.92zm-44.33 1.08c1.98 3.5 3.77 6.46 8.08 6.46 4.12 0 6.72-1.62 6.72-7.89V13.35h12.55v42.83c0 12.99-7.62 18.91-18.74 18.91-10.04 0-15.86-5.2-18.82-11.46l10.21-6.19z" fill="#000"/></svg>