<svg width="357" height="72" fill="none" xmlns="http://www.w3.org/2000/svg"><path d="M93.888 12.2h26.752v28.544c0 2.432-.32 4.715-.96 6.848-.597 2.133-1.707 4.032-3.328 5.696-1.024 1.024-2.133 1.835-3.328 2.432a16.985 16.985 0 01-3.392 1.344c-1.109.299-2.155.49-3.136.576-.981.085-1.792.128-2.432.128-2.048 0-4.032-.235-5.952-.704-1.92-.427-3.84-1.216-5.76-2.368l3.136-7.04c1.621.939 3.008 1.557 4.16 1.856 1.195.299 2.56.448 4.096.448.939 0 1.941-.17 3.008-.512a7.143 7.143 0 002.88-1.856c1.493-1.621 2.24-3.883 2.24-6.784v-20.8H93.888V12.2zm36.647 30.144h7.04v6.336l.384.128c.981.427 2.048.79 3.2 1.088 1.195.256 2.453.384 3.776.384 2.389 0 4.245-.47 5.568-1.408 1.323-.981 1.984-2.283 1.984-3.904 0-1.45-.555-2.624-1.664-3.52-1.067-.896-2.411-1.685-4.032-2.368a85.204 85.204 0 00-5.248-2.048 27.2 27.2 0 01-5.248-2.56 15.488 15.488 0 01-4.032-3.968c-1.067-1.579-1.6-3.627-1.6-6.144 0-1.92.363-3.67 1.088-5.248a12.602 12.602 0 013.136-4.16c1.365-1.152 2.987-2.048 4.864-2.688 1.877-.64 3.968-.96 6.272-.96 2.603 0 5.163.235 7.68.704 2.517.47 4.523 1.11 6.016 1.92V26.92h-7.04v-7.104c-.128 0-.256-.021-.384-.064a20.728 20.728 0 00-3.072-.576 20.22 20.22 0 00-3.2-.256c-2.048 0-3.669.405-4.864 1.216-1.152.81-1.728 1.899-1.728 3.264 0 1.408.533 2.56 1.6 3.456 1.109.896 2.453 1.707 4.032 2.432 1.621.725 3.371 1.45 5.248 2.176 1.92.725 3.669 1.621 5.248 2.688a13.541 13.541 0 014.032 3.904c1.109 1.579 1.664 3.563 1.664 5.952 0 2.304-.427 4.33-1.28 6.08a12.585 12.585 0 01-3.584 4.352c-1.536 1.152-3.349 2.005-5.44 2.56-2.091.597-4.352.896-6.784.896-1.621 0-3.136-.128-4.544-.384a31.583 31.583 0 01-3.84-.96 27.125 27.125 0 01-3.072-1.216 51.26 51.26 0 01-2.176-1.088V42.344zm61.799 2.24h-17.216L171.022 57h-5.248l14.976-44.8h6.272L202.126 57h-5.568l-4.224-12.416zm-15.552-4.608h14.08L184.27 18.92h-.768l-6.72 21.056zM207.349 57v-4.288h8.64V29.288h-8.64V25h11.968l1.024 4.16h.32a23.076 23.076 0 014.864-3.392c1.792-.939 3.925-1.408 6.4-1.408 1.451 0 2.603.277 3.456.832.896.555 1.579 1.365 2.048 2.432.512 1.067.853 2.368 1.024 3.904.171 1.493.256 3.2.256 5.12l-4.48.064c0-2.73-.277-4.736-.832-6.016-.512-1.28-1.472-1.92-2.88-1.92-1.323 0-2.517.192-3.584.576-1.067.384-2.005.853-2.816 1.408a16.318 16.318 0 00-1.984 1.664c-.555.555-.96 1.024-1.216 1.408v18.88h12.288V57h-25.856zm68.007-4.032c-.768.683-1.685 1.323-2.752 1.92a19.032 19.032 0 01-3.392 1.536 22.697 22.697 0 01-3.904.96 21.175 21.175 0 01-4.032.384c-2.56 0-4.821-.384-6.784-1.152-1.963-.81-3.605-1.941-4.928-3.392-1.323-1.493-2.325-3.264-3.008-5.312-.683-2.048-1.024-4.352-1.024-6.912 0-2.688.363-5.077 1.088-7.168.768-2.09 1.856-3.84 3.264-5.248 1.408-1.408 3.115-2.475 5.12-3.2 2.005-.768 4.245-1.152 6.72-1.152 1.792 0 3.563.235 5.312.704 1.749.47 3.285 1.365 4.608 2.688 1.365 1.28 2.411 3.072 3.136 5.376.725 2.261.981 5.205.768 8.832H250.78c0 3.84 1.024 6.72 3.072 8.64 2.091 1.877 4.864 2.816 8.32 2.816 1.152 0 2.283-.128 3.392-.384 1.152-.299 2.24-.64 3.264-1.024 1.024-.384 1.92-.81 2.688-1.28.811-.47 1.429-.896 1.856-1.28l1.984 3.648zm-13.504-24.512c-1.408 0-2.752.15-4.032.448a9.146 9.146 0 00-3.328 1.536c-.939.683-1.728 1.6-2.368 2.752-.597 1.11-.981 2.496-1.152 4.16h19.904c-.213-2.816-1.131-4.992-2.752-6.528-1.579-1.579-3.669-2.368-6.272-2.368zm23.975 7.744c0-.384-.021-.875-.064-1.472 0-.64-.021-1.28-.064-1.92a28.845 28.845 0 00-.192-1.984 15.188 15.188 0 00-.192-1.664h-4.288V25h8.576l.576 5.184h.32c.427-.725.981-1.43 1.664-2.112a12.487 12.487 0 012.496-1.92 12.335 12.335 0 013.136-1.408 12.777 12.777 0 013.648-.512c1.963 0 3.691.213 5.184.64 1.536.427 2.795 1.195 3.776 2.304 1.024 1.067 1.792 2.539 2.304 4.416.512 1.835.768 4.181.768 7.04V57h-4.992V39.592c0-3.541-.576-6.208-1.728-8-1.152-1.792-3.243-2.688-6.272-2.688a8.034 8.034 0 00-3.264.704 10.644 10.644 0 00-2.816 1.728c-.853.725-1.6 1.579-2.24 2.56a10.194 10.194 0 00-1.408 3.008V57h-4.928V36.2zm39.335-8.704c1.835-1.067 3.904-1.835 6.208-2.304a33.933 33.933 0 016.784-.704c2.176 0 3.947.341 5.312 1.024 1.408.683 2.496 1.579 3.264 2.688.811 1.067 1.344 2.304 1.6 3.712.299 1.365.448 2.752.448 4.16 0 1.621-.043 3.35-.128 5.184-.085 1.835-.149 3.67-.192 5.504 0 2.133.128 4.16.384 6.08h4.288V57h-8.512l-.576-4.8h-.32c-.256.384-.64.875-1.152 1.472-.512.597-1.195 1.195-2.048 1.792-.811.555-1.813 1.045-3.008 1.472-1.195.427-2.603.64-4.224.64-3.157 0-5.653-.81-7.488-2.432-1.835-1.621-2.752-3.84-2.752-6.656 0-2.176.469-3.99 1.408-5.44.981-1.45 2.368-2.56 4.16-3.328 1.792-.768 3.947-1.216 6.464-1.344 2.56-.128 5.419.043 8.576.512.213-1.963.235-3.584.064-4.864-.128-1.323-.469-2.368-1.024-3.136-.512-.768-1.259-1.301-2.24-1.6-.939-.341-2.112-.512-3.52-.512-1.92 0-3.755.277-5.504.832-1.749.512-3.307 1.045-4.672 1.6l-1.6-3.712zm9.408 25.792c1.195 0 2.304-.192 3.328-.576 1.024-.384 1.92-.875 2.688-1.472a10.214 10.214 0 001.92-1.92c.512-.725.896-1.408 1.152-2.048v-4.48c-2.219-.384-4.267-.576-6.144-.576-1.877 0-3.499.213-4.864.64-1.365.384-2.432 1.003-3.2 1.856-.768.853-1.152 1.963-1.152 3.328 0 1.408.469 2.645 1.408 3.712.981 1.024 2.603 1.536 4.864 1.536z" fill="#323330"/><path d="M61.064 13.52l-.32-4.2-.33-4.32h-7.19c-.43 0-.77.36-.75.79l.15 2.74c.02.43-.32.79-.75.79h-6.57c-.4 0-.73-.32-.75-.72l-.07-2.87a.743.743 0 00-.75-.72h-6.51c-.42 0-.75.34-.75.75l.03 2.81c0 .42-.33.76-.75.76h-6.56c-.42 0-.75-.34-.75-.76l.04-2.81c0-.42-.33-.75-.75-.75h-6.51c-.4 0-.73.32-.75.72l-.09 2.87c-.01.4-.34.72-.75.72h-6.57c-.43 0-.77-.36-.75-.79l.17-2.74a.752.752 0 00-.75-.79h-6.49c-.39 0-.71.3-.74.69l-.28 3.63-.32 4.2-3.9 51.05c-.06.8.57 1.48 1.37 1.48h18.98c.75 0 1.36-.6 1.38-1.34l.44-17.53c.03-1.35.35-2.64.9-3.79a9.744 9.744 0 012.25-3.04c.93-.86 2.03-1.55 3.24-2.02 1.21-.47 2.54-.74 3.92-.74a10.595 10.595 0 017.16 2.76c.94.86 1.7 1.89 2.25 3.04.55 1.16.87 2.44.9 3.79l.44 17.53c.02.75.63 1.34 1.38 1.34h18.98c.8 0 1.43-.68 1.37-1.48l-3.9-51.05z" fill="#2F2E41"/></svg>