<svg version="1.2" baseProfile="tiny-ps" xmlns="http://www.w3.org/2000/svg" width="502" height="86">
  <style>
  </style>
  <path fill="#fff" aria-label="Console" d="M153.46 27.5v-9.41q-1.49-.62-3.34-.88-1.76-.35-4.31-.35-3.61 0-7.13 1.32-3.43 1.32-6.16 4.31-2.64 2.99-4.31 7.83-1.59 4.84-1.59 11.88 0 6.34 1.41 11.09 1.5 4.75 4.05 7.92 2.64 3.17 6.25 4.75 3.69 1.58 8.18 1.58 2.29 0 4.23-.35 2.02-.44 3.69-1.14v-8.8h6.51v11.88l.09.17q-2.64 2.03-6.69 3.44-4.04 1.32-9.85 1.32-5.55 0-10.3-1.85-4.66-1.94-8.09-5.81-3.44-3.87-5.37-9.86-1.85-6.07-1.85-14.34 0-8.62 2.11-14.61 2.11-6.07 5.72-9.85 3.61-3.88 8.36-5.64 4.84-1.76 10.3-1.76 2.99 0 5.19.27 2.2.17 3.87.61 1.67.36 2.91.97 1.32.62 2.55 1.41h.09v13.9h-6.52zm-2.32 0v-9.41q-1.49-.62-3.34-.88-1.76-.35-4.31-.35-3.61 0-7.13 1.32-3.43 1.32-6.16 4.31-2.64 2.99-4.31 7.83-1.59 4.84-1.59 11.88 0 6.34 1.41 11.09 1.5 4.75 4.05 7.92 2.64 3.17 6.25 4.75 3.69 1.58 8.18 1.58 2.29 0 4.23-.35 2.02-.44 3.69-1.14v-8.8h6.51v11.88l.09.17q-2.64 2.03-6.69 3.44-4.04 1.32-9.85 1.32-5.55 0-10.3-1.85-4.66-1.94-8.09-5.81-3.44-3.87-5.37-9.86-1.85-6.07-1.85-14.34 0-8.62 2.11-14.61 2.11-6.07 5.72-9.85 3.61-3.88 8.36-5.64 4.84-1.76 10.3-1.76 2.99 0 5.19.27 2.2.17 3.87.61 1.67.36 2.91.97 1.32.62 2.55 1.41h.09v13.9h-6.52zM173.35 51q0-10.65 5.55-16.81 5.54-6.25 15.84-6.25 5.54 0 9.5 1.85 4.05 1.76 6.69 4.84 2.64 3.08 3.87 7.31 1.32 4.22 1.32 9.06 0 5.28-1.41 9.59-1.41 4.23-4.13 7.22-2.73 2.99-6.78 4.66-3.96 1.59-9.06 1.59-5.46 0-9.51-1.76-4.05-1.85-6.69-4.93-2.64-3.08-3.96-7.31-1.23-4.22-1.23-9.06zm7.31 0q0 3.08.7 6.16.79 3.08 2.46 5.54 1.68 2.47 4.32 3.96 2.72 1.5 6.6 1.5 7.04 0 10.56-4.31 3.6-4.4 3.6-12.85 0-3.17-.79-6.16-.7-3.08-2.46-5.54-1.67-2.47-4.4-3.96-2.64-1.5-6.51-1.5-7.04 0-10.56 4.31-3.52 4.31-3.52 12.85zm-9.63 0q0-10.65 5.55-16.81 5.54-6.25 15.84-6.25 5.54 0 9.5 1.85 4.05 1.76 6.69 4.84 2.64 3.08 3.87 7.31 1.32 4.22 1.32 9.06 0 5.28-1.41 9.59-1.41 4.23-4.13 7.22-2.73 2.99-6.78 4.66-3.96 1.59-9.06 1.59-5.46 0-9.51-1.76-4.05-1.85-6.69-4.93-2.64-3.08-3.96-7.31-1.23-4.22-1.23-9.06zm7.31 0q0 3.08.7 6.16.79 3.08 2.46 5.54 1.68 2.47 4.32 3.96 2.72 1.5 6.6 1.5 7.04 0 10.56-4.31 3.6-4.4 3.6-12.85 0-3.17-.79-6.16-.7-3.08-2.46-5.54-1.67-2.47-4.4-3.96-2.64-1.5-6.51-1.5-7.04 0-10.56 4.31-3.52 4.31-3.52 12.85zm53.36 22V44.4q0-.79-.09-2.02 0-1.32-.09-2.64-.09-1.41-.26-2.73-.09-1.32-.27-2.29h-5.89V29h11.79l.79 7.13h.44q.88-1.5 2.29-2.91 1.49-1.49 3.43-2.64 1.94-1.23 4.31-1.93 2.38-.71 5.02-.71 4.05 0 7.13.88 3.16.88 5.19 3.17 2.11 2.2 3.17 6.07 1.05 3.79 1.05 9.68V73h-6.86V49.06q0-7.3-2.38-11-2.37-3.69-8.62-3.69-2.29 0-4.49.97-2.11.88-3.87 2.37-1.76 1.5-3.08 3.52-1.32 1.94-1.94 4.14V73h-6.77zm-2.32 0V44.4q0-.79-.09-2.02 0-1.32-.09-2.64-.09-1.41-.26-2.73-.09-1.32-.27-2.29h-5.89V29h11.79l.79 7.13h.44q.88-1.5 2.29-2.91 1.49-1.49 3.43-2.64 1.94-1.23 4.31-1.93 2.38-.71 5.02-.71 4.05 0 7.13.88 3.16.88 5.19 3.17 2.11 2.2 3.17 6.07 1.05 3.79 1.05 9.68V73h-6.86V49.06q0-7.3-2.38-11-2.37-3.69-8.62-3.69-2.29 0-4.49.97-2.11.88-3.87 2.37-1.76 1.5-3.08 3.52-1.32 1.94-1.94 4.14V73h-6.77zm87.85-11.88q0-2.82-2.2-4.31-2.2-1.59-5.45-2.47-3.26-.96-7.13-1.76-3.79-.79-7.04-2.11-3.26-1.32-5.46-3.52-2.2-2.29-2.2-6.33 0-3.35 1.41-5.72 1.5-2.38 3.87-3.88 2.38-1.58 5.55-2.28 3.16-.8 6.6-.8 6.16 0 10.56 1.59 4.48 1.49 7.12 3.17l-2.81 5.54q-2.91-1.58-6.34-2.99-3.34-1.5-8.45-1.5-1.93 0-3.87.44-1.85.35-3.43 1.15-1.5.79-2.46 2.11-.88 1.23-.88 3.08 0 2.29 2.2 3.52t5.45 2.11q3.26.79 7.04 1.58 3.87.71 7.13 2.12 3.26 1.4 5.46 3.78t2.2 6.42q0 6.08-4.84 10.04-4.76 3.96-14.35 3.96-2.9 0-5.72-.53-2.81-.53-5.28-1.41-2.46-.88-4.49-1.94-2.02-1.14-3.34-2.28l3.52-5.72q1.06 1.05 2.82 2.2 1.76 1.05 3.87 1.93 2.11.88 4.49 1.41 2.46.53 4.92.53 2.38 0 4.4-.35 2.12-.44 3.7-1.24 1.58-.88 2.46-2.2.97-1.4.97-3.34zm-2.32 0q0-2.82-2.2-4.31-2.2-1.59-5.45-2.47-3.26-.96-7.13-1.76-3.79-.79-7.04-2.11-3.26-1.32-5.46-3.52-2.2-2.29-2.2-6.33 0-3.35 1.41-5.72 1.5-2.38 3.87-3.88 2.38-1.58 5.55-2.28 3.16-.8 6.6-.8 6.16 0 10.56 1.59 4.48 1.49 7.12 3.17l-2.81 5.54q-2.91-1.58-6.34-2.99-3.34-1.5-8.45-1.5-1.93 0-3.87.44-1.85.35-3.43 1.15-1.5.79-2.46 2.11-.88 1.23-.88 3.08 0 2.29 2.2 3.52t5.45 2.11q3.26.79 7.04 1.58 3.87.71 7.13 2.12 3.26 1.4 5.46 3.78t2.2 6.42q0 6.08-4.84 10.04-4.76 3.96-14.35 3.96-2.9 0-5.72-.53-2.81-.53-5.28-1.41-2.46-.88-4.49-1.94-2.02-1.14-3.34-2.28l3.52-5.72q1.06 1.05 2.82 2.2 1.76 1.05 3.87 1.93 2.11.88 4.49 1.41 2.46.53 4.92.53 2.38 0 4.4-.35 2.12-.44 3.7-1.24 1.58-.88 2.46-2.2.97-1.4.97-3.34zM338.88 51q0-10.65 5.54-16.81 5.55-6.25 15.84-6.25 5.55 0 9.51 1.85 4.05 1.76 6.69 4.84 2.64 3.08 3.87 7.31 1.32 4.22 1.32 9.06 0 5.28-1.41 9.59-1.41 4.23-4.14 7.22-2.72 2.99-6.77 4.66-3.96 1.59-9.07 1.59-5.45 0-9.5-1.76-4.05-1.85-6.69-4.93-2.64-3.08-3.96-7.31-1.23-4.22-1.23-9.06zm7.3 0q0 3.08.71 6.16.79 3.08 2.46 5.54 1.67 2.47 4.31 3.96 2.73 1.5 6.6 1.5 7.04 0 10.56-4.31 3.61-4.4 3.61-12.85 0-3.17-.79-6.16-.7-3.08-2.46-5.54-1.68-2.47-4.4-3.96-2.64-1.5-6.52-1.5-7.04 0-10.56 4.31-3.52 4.31-3.52 12.85zm-9.62 0q0-10.65 5.54-16.81 5.55-6.25 15.84-6.25 5.55 0 9.51 1.85 4.05 1.76 6.69 4.84 2.64 3.08 3.87 7.31 1.32 4.22 1.32 9.06 0 5.28-1.41 9.59-1.41 4.23-4.14 7.22-2.72 2.99-6.77 4.66-3.96 1.59-9.07 1.59-5.45 0-9.5-1.76-4.05-1.85-6.69-4.93-2.64-3.08-3.96-7.31-1.23-4.22-1.23-9.06zm7.3 0q0 3.08.71 6.16.79 3.08 2.46 5.54 1.67 2.47 4.31 3.96 2.73 1.5 6.6 1.5 7.04 0 10.56-4.31 3.61-4.4 3.61-12.85 0-3.17-.79-6.16-.7-3.08-2.46-5.54-1.68-2.47-4.4-3.96-2.64-1.5-6.52-1.5-7.04 0-10.56 4.31-3.52 4.31-3.52 12.85zm51.34-33.7v-5.9h14.61v46.82q0 5.36 1.76 7.56 1.85 2.2 5.37 2.2 2.46 0 5.01-.96 2.55-.97 4.67-2.73l3.16 4.66q-1.4 1.23-3.08 2.2-1.67.97-3.43 1.67-1.76.62-3.52.97t-3.25.35q-3.26 0-5.81-.79-2.55-.88-4.31-2.73-1.68-1.84-2.56-4.84-.88-3.08-.88-7.56V17.3h-7.74zm-2.32 0v-5.9h14.61v46.82q0 5.36 1.76 7.56 1.85 2.2 5.37 2.2 2.46 0 5.01-.96 2.55-.97 4.67-2.73l3.16 4.66q-1.4 1.23-3.08 2.2-1.67.97-3.43 1.67-1.76.62-3.52.97t-3.25.35q-3.26 0-5.81-.79-2.55-.88-4.31-2.73-1.68-1.84-2.56-4.84-.88-3.08-.88-7.56V17.3h-7.74zm95.16 45.14l2.73 5.02q-1.59 1.4-3.79 2.64-2.11 1.23-4.66 2.11-2.55.88-5.37 1.41-2.73.44-5.54.44-5.28 0-9.33-1.59-4.05-1.67-6.78-4.66-2.72-3.08-4.13-7.31-1.41-4.22-1.41-9.5 0-5.54 1.5-9.86 1.58-4.31 4.48-7.21 2.91-2.91 7.04-4.4 4.14-1.59 9.24-1.59 3.7 0 7.31.97 3.61.97 6.33 3.7 2.82 2.64 4.32 7.39 1.49 4.66 1.05 12.14h-34.05q0 7.92 4.22 11.88 4.31 3.88 11.44 3.88 2.38 0 4.66-.53 2.38-.62 4.49-1.41 2.11-.79 3.7-1.76 1.67-.97 2.55-1.76zM472.2 33.75q-2.9 0-5.54.62-2.56.61-4.58 2.11-1.94 1.41-3.26 3.78-1.23 2.29-1.58 5.72h27.37q-.44-5.8-3.79-8.97-3.25-3.26-8.62-3.26zm13.52 28.69l2.73 5.02q-1.59 1.4-3.79 2.64-2.11 1.23-4.66 2.11-2.55.88-5.37 1.41-2.73.44-5.54.44-5.28 0-9.33-1.59-4.05-1.67-6.78-4.66-2.72-3.08-4.13-7.31-1.41-4.22-1.41-9.5 0-5.54 1.5-9.86 1.58-4.31 4.48-7.21 2.91-2.91 7.04-4.4 4.14-1.59 9.24-1.59 3.7 0 7.31.97 3.61.97 6.33 3.7 2.82 2.64 4.32 7.39 1.49 4.66 1.05 12.14h-34.05q0 7.92 4.22 11.88 4.31 3.88 11.44 3.88 2.38 0 4.66-.53 2.38-.62 4.49-1.41 2.11-.79 3.7-1.76 1.67-.97 2.55-1.76zm-15.84-28.69q-2.9 0-5.54.62-2.56.61-4.58 2.11-1.94 1.41-3.26 3.78-1.23 2.29-1.58 5.72h27.37q-.44-5.8-3.79-8.97-3.25-3.26-8.62-3.26z" opacity=".6"/>
  <path d="M0 0h106v86H0V0z" fill="#f7df1e"/>
  <path d="M62.54 56.36c2.69 4.39 6.19 7.61 12.38 7.61 5.2 0 8.52-2.59 8.52-6.18 0-4.31-3.41-5.83-9.14-8.33l-3.13-1.35C62.11 44.25 56.1 39.42 56.1 29.2c0-9.41 7.17-16.57 18.37-16.57 7.98 0 13.72 2.78 17.85 10.05l-9.77 6.27c-2.15-3.86-4.47-5.38-8.08-5.38-3.67 0-6 2.33-6 5.38 0 3.76 2.33 5.29 7.71 7.62l3.14 1.34C89.98 42.49 96 47.15 96 57.62c0 11.3-8.87 17.49-20.79 17.49-11.66 0-19.18-5.55-22.87-12.83l10.2-5.92zm-44.33 1.08c1.98 3.5 3.77 6.46 8.08 6.46 4.12 0 6.72-1.62 6.72-7.89V13.35h12.55v42.83c0 12.99-7.62 18.91-18.74 18.91-10.04 0-15.86-5.2-18.82-11.46l10.21-6.19z"/>
</svg>
