<svg width="383" height="236" viewBox="0 0 383 236" fill="none" xmlns="http://www.w3.org/2000/svg">
<path d="M382 185.5H1C0.734784 185.5 0.480444 185.395 0.292908 185.207C0.105371 185.02 0 184.765 0 184.5C0 184.235 0.105371 183.98 0.292908 183.793C0.480444 183.605 0.734784 183.5 1 183.5H382C382.265 183.5 382.52 183.605 382.707 183.793C382.895 183.98 383 184.235 383 184.5C383 184.765 382.895 185.02 382.707 185.207C382.52 185.395 382.265 185.5 382 185.5Z" fill="#3F3D56"/>
<path d="M199.059 54.5C213.971 54.5 226.059 42.4117 226.059 27.5C226.059 12.5883 213.971 0.5 199.059 0.5C184.147 0.5 172.059 12.5883 172.059 27.5C172.059 42.4117 184.147 54.5 199.059 54.5Z" fill="#2F2E41"/>
<path d="M173.405 200.826L172.69 188.588L219.556 180.003L220.612 198.067L173.405 200.826Z" fill="#FFB8B8"/>
<path d="M175.675 179.641L177.055 203.245L162.194 204.113L159.945 165.648C161.897 165.534 163.852 165.806 165.699 166.447C167.545 167.089 169.248 168.087 170.708 169.387C172.169 170.686 173.359 172.261 174.212 174.02C175.064 175.779 175.561 177.689 175.675 179.641Z" fill="#2F2E41"/>
<path d="M193.789 200.714L186.004 210.185L145.768 184.666L157.257 170.688L193.789 200.714Z" fill="#FFB8B8"/>
<path d="M177.737 214.726L192.751 196.46L204.251 205.913L179.785 235.679C178.275 234.438 177.024 232.911 176.104 231.187C175.184 229.462 174.612 227.573 174.422 225.627C174.232 223.681 174.427 221.717 174.996 219.847C175.564 217.976 176.496 216.236 177.737 214.726V214.726Z" fill="#2F2E41"/>
<path d="M171.387 156.67L166.067 181.749C165.944 182.326 165.951 182.924 166.087 183.498C166.223 184.073 166.484 184.61 166.852 185.072C167.219 185.533 167.685 185.908 168.215 186.168C168.744 186.429 169.325 186.569 169.915 186.578L222.213 187.422C222.803 187.431 223.387 187.31 223.924 187.068C224.462 186.825 224.939 186.467 225.321 186.018C225.704 185.569 225.982 185.042 226.137 184.473C226.292 183.904 226.319 183.308 226.217 182.727L221.642 156.805C221.479 155.879 220.994 155.04 220.274 154.436C219.554 153.831 218.643 153.5 217.703 153.5H175.3C174.383 153.5 173.494 153.815 172.782 154.392C172.069 154.969 171.577 155.773 171.387 156.67V156.67Z" fill="#2F2E41"/>
<path d="M180.059 165.5C180.059 165.5 129.059 133.5 119.059 150.5C114.059 159 116.559 167.25 120.309 173.375C123.789 178.952 128.785 183.423 134.712 186.266L176.059 206.5L191.059 190.5L181.059 181.5L180.059 165.5Z" fill="#2F2E41"/>
<path d="M206.059 160.5C206.059 160.5 272.059 141.5 259.059 177.5C246.059 213.5 197.059 199.5 197.059 199.5L192.059 184.5L209.059 172.5L206.059 160.5Z" fill="#2F2E41"/>
<path d="M199.398 58.2264C212.962 58.2264 223.959 47.23 223.959 33.6653C223.959 20.1007 212.962 9.10432 199.398 9.10432C185.833 9.10432 174.837 20.1007 174.837 33.6653C174.837 47.23 185.833 58.2264 199.398 58.2264Z" fill="#FFB8B8"/>
<path d="M200.685 164.469C190.479 164.314 180.325 162.977 170.427 160.482L170.135 160.402L156.429 97.3575C155.196 91.8175 156.035 86.0178 158.786 81.0537C161.537 76.0896 166.011 72.3048 171.362 70.4141C187.892 64.4833 205.908 64.1235 222.662 69.3896H222.662C228.284 71.2012 233.015 75.0657 235.913 80.212C238.811 85.3583 239.663 91.4082 238.297 97.1543L222.989 160.35L222.773 160.452C216.411 163.466 208.456 164.469 200.685 164.469Z" fill="#CCCCCC"/>
<path d="M182.274 169.366C182.772 167.983 183.567 166.726 184.603 165.683C185.64 164.64 186.892 163.837 188.272 163.331C189.652 162.824 191.126 162.627 192.591 162.751C194.056 162.876 195.475 163.321 196.75 164.054L223.736 140.63L226.178 159.038L200.177 178.46C198.804 180.519 196.723 182.003 194.328 182.631C191.934 183.258 189.393 182.986 187.186 181.865C184.98 180.744 183.261 178.852 182.355 176.549C181.45 174.245 181.421 171.69 182.274 169.366V169.366Z" fill="#FFB8B8"/>
<path d="M208.012 174.476C207.573 174.475 207.136 174.411 206.716 174.285C206.033 174.086 205.408 173.727 204.892 173.237C204.377 172.747 203.986 172.141 203.753 171.469L200.496 162.24C200.191 161.387 200.152 160.462 200.385 159.587C200.617 158.711 201.11 157.927 201.798 157.338L238.567 135.264L224.073 70.6025L224.442 70.5137C224.592 70.4766 239.442 67.0967 245.527 83.3242C249.789 94.6895 265.559 119.401 264.446 136.101C264.235 139.441 262.904 142.612 260.668 145.103C258.432 147.594 255.422 149.259 252.124 149.828L210.736 173.541C209.957 174.145 208.999 174.474 208.012 174.476Z" fill="#CCCCCC"/>
<path d="M212.136 167.173C211.638 165.789 210.843 164.532 209.807 163.489C208.771 162.446 207.519 161.644 206.139 161.137C204.759 160.631 203.284 160.433 201.819 160.558C200.355 160.683 198.935 161.128 197.661 161.86L170.674 138.436L168.233 156.844L194.234 176.267C195.607 178.326 197.688 179.81 200.082 180.437C202.476 181.065 205.017 180.792 207.224 179.671C209.431 178.55 211.15 176.659 212.055 174.355C212.96 172.052 212.989 169.496 212.136 167.173V167.173Z" fill="#FFB8B8"/>
<path d="M189.106 174.476C188.12 174.474 187.162 174.145 186.382 173.541L141.994 151.828C138.696 151.259 135.686 149.594 133.45 147.103C131.214 144.612 129.883 141.441 129.672 138.101C128.559 121.401 147.329 94.6895 151.591 83.3242C157.676 67.0967 172.526 70.4756 172.677 70.5137L173.045 70.6026L155.551 137.264L195.32 157.338C196.008 157.927 196.501 158.711 196.733 159.587C196.966 160.462 196.927 161.387 196.622 162.24L193.365 171.469C193.132 172.141 192.741 172.747 192.226 173.237C191.71 173.727 191.085 174.086 190.402 174.285C189.982 174.411 189.545 174.475 189.106 174.476V174.476Z" fill="#CCCCCC"/>
<path d="M242.059 184.5H153.059C151.203 184.498 149.424 183.76 148.112 182.447C146.799 181.135 146.061 179.356 146.059 177.5V128.5C146.061 126.644 146.799 124.865 148.112 123.553C149.424 122.24 151.203 121.502 153.059 121.5H242.059C243.915 121.502 245.694 122.24 247.006 123.553C248.319 124.865 249.057 126.644 249.059 128.5V177.5C249.057 179.356 248.319 181.135 247.006 182.447C245.694 183.76 243.915 184.498 242.059 184.5V184.5Z" fill="#F9A826"/>
<path d="M197.559 159C200.873 159 203.559 156.314 203.559 153C203.559 149.686 200.873 147 197.559 147C194.245 147 191.559 149.686 191.559 153C191.559 156.314 194.245 159 197.559 159Z" fill="white"/>
<path d="M174.591 32.6657C173.135 28.9734 175.523 24.5733 179.066 22.7847C182.609 20.9961 186.885 21.3363 190.675 22.5151C193.859 23.5057 196.844 25.0409 199.951 26.2535C203.015 27.6109 206.361 28.2069 209.704 27.9904C213.019 27.6161 216.317 25.7576 217.673 22.7104C219.079 19.5518 218.123 15.6973 215.958 13.0016C213.655 10.3956 210.674 8.47961 207.346 7.46682C200.039 4.89239 191.598 4.81713 184.814 8.55932C178.03 12.3015 173.42 20.2695 174.822 27.8893" fill="#2F2E41"/>
<path d="M32.6625 173.818C33.8979 160.513 37.3102 147.501 42.763 135.301C44.2828 131.906 45.9555 128.586 47.7811 125.34C47.8727 125.171 47.8948 124.972 47.8427 124.786C47.7906 124.601 47.6684 124.443 47.5019 124.345C47.3354 124.248 47.1376 124.219 46.9502 124.265C46.7628 124.31 46.6006 124.427 46.4976 124.59C39.8583 136.411 35.2071 149.243 32.7298 162.573C32.0407 166.295 31.5228 170.044 31.176 173.818C31.0879 174.771 32.5749 174.765 32.6625 173.818V173.818Z" fill="#E6E6E6"/>
<path d="M51.3814 127.724C56.5808 127.724 60.7958 123.509 60.7958 118.31C60.7958 113.111 56.5808 108.896 51.3814 108.896C46.182 108.896 41.967 113.111 41.967 118.31C41.967 123.509 46.182 127.724 51.3814 127.724Z" fill="#F9A826"/>
<path d="M33.6255 174.069C34.427 165.437 36.6407 156.995 40.1782 149.081C41.1641 146.878 42.2493 144.724 43.4337 142.619C43.493 142.508 43.5073 142.38 43.4735 142.259C43.4397 142.139 43.3604 142.036 43.2524 141.973C43.1444 141.91 43.0161 141.891 42.8946 141.921C42.7731 141.95 42.6678 142.026 42.601 142.132C38.2938 149.801 35.2763 158.125 33.6692 166.773C33.2221 169.188 32.8861 171.62 32.6612 174.069C32.604 174.686 33.5687 174.682 33.6255 174.069H33.6255Z" fill="#E6E6E6"/>
<path d="M45.7694 144.165C49.1425 144.165 51.8769 141.431 51.8769 138.058C51.8769 134.685 49.1425 131.95 45.7694 131.95C42.3963 131.95 39.6618 134.685 39.6618 138.058C39.6618 141.431 42.3963 144.165 45.7694 144.165Z" fill="#F9A826"/>
<path d="M32.4084 173.492C27.7312 166.193 24.2845 158.175 22.2059 149.759C21.6287 147.416 21.1595 145.05 20.7983 142.662C20.7775 142.538 20.7095 142.428 20.6087 142.354C20.508 142.279 20.3823 142.247 20.2583 142.264C20.1343 142.281 20.0216 142.345 19.944 142.443C19.8664 142.541 19.83 142.666 19.8424 142.79C21.163 151.486 23.9039 159.906 27.9555 167.713C29.0882 169.892 30.3191 172.016 31.648 174.085C31.9828 174.607 32.7411 174.011 32.4084 173.492V173.492Z" fill="#E6E6E6"/>
<path d="M19.8347 143.736C23.2078 143.736 25.9423 141.002 25.9423 137.629C25.9423 134.256 23.2078 131.521 19.8347 131.521C16.4616 131.521 13.7271 134.256 13.7271 137.629C13.7271 141.002 16.4616 143.736 19.8347 143.736Z" fill="#F9A826"/>
<path d="M13.6586 178.896V166.896C13.6599 165.703 14.1345 164.559 14.9781 163.715C15.8217 162.872 16.9655 162.397 18.1586 162.396H46.1586C47.3516 162.397 48.4954 162.872 49.3391 163.715C50.1827 164.559 50.6572 165.703 50.6586 166.896V178.896C50.6572 180.089 50.1827 181.233 49.3391 182.076C48.4954 182.92 47.3516 183.394 46.1586 183.396H18.1586C16.9655 183.394 15.8217 182.92 14.9781 182.076C14.1345 181.233 13.6599 180.089 13.6586 178.896V178.896Z" fill="#F2F2F2"/>
<path d="M314.409 192.901C314.409 199.478 309.077 202.467 302.5 202.467C295.923 202.467 290.591 199.478 290.591 192.901C290.591 186.324 293.238 178.649 302.5 181.296C311.762 177.326 314.409 186.324 314.409 192.901Z" fill="#FF6584"/>
<path d="M301.92 184.377C301.457 184.378 301.009 184.21 300.661 183.904C300.313 183.599 300.088 183.177 300.029 182.718C299.635 179.436 297.461 173.01 296.545 170.399L296.545 170.398C296.452 170.139 296.424 169.861 296.462 169.588C296.501 169.315 296.604 169.056 296.765 168.832C296.919 168.632 297.113 168.467 297.335 168.347C297.557 168.227 297.802 168.156 298.054 168.138C298.305 168.12 298.558 168.155 298.795 168.241C299.032 168.328 299.248 168.464 299.428 168.64C299.59 168.809 299.715 169.009 299.795 169.229C299.876 169.449 299.91 169.682 299.897 169.916C299.717 173.267 302.16 178.681 303.632 181.61C303.771 181.886 303.84 182.192 303.835 182.501C303.83 182.81 303.749 183.114 303.601 183.385C303.452 183.656 303.24 183.887 302.982 184.058C302.725 184.229 302.429 184.335 302.122 184.366C302.055 184.374 301.987 184.377 301.92 184.377V184.377Z" fill="#3F3D56"/>
<path d="M310.732 176.985C314.866 173.602 311.623 166.678 306.449 168.007C305.752 168.173 305.111 168.516 304.585 169.001C301.411 171.999 300.919 179.67 300.919 179.67C300.919 179.67 306.524 180.43 310.732 176.985Z" fill="#3F3D56"/>
</svg>
